<mxfile modified="2024-06-18T17:51:13.959Z" host="app.diagrams.net" agent="Mozilla/5.0 (Windows NT 10.0; Win64; x64) AppleWebKit/537.36 (KHTML, like Gecko) Chrome/125.0.0.0 Safari/537.36 Edg/125.0.0.0" etag="qiR95BfQSyNQM0JrBM7Z" version="24.5.5" type="github">
  <diagram id="Ht1M8jgEwFfnCIfOTk4-" name="Page-1">
    <mxGraphModel dx="1158" dy="1421" grid="1" gridSize="10" guides="1" tooltips="1" connect="1" arrows="1" fold="1" page="1" pageScale="1" pageWidth="1169" pageHeight="827" math="0" shadow="0">
      <root>
        <mxCell id="0" />
        <mxCell id="1" parent="0" />
        <mxCell id="UEzPUAAOIrF-is8g5C7q-195" style="edgeStyle=orthogonalEdgeStyle;rounded=0;orthogonalLoop=1;jettySize=auto;html=1;startArrow=none;startFill=0;endArrow=open;endFill=0;strokeColor=#808080;strokeWidth=2;" parent="1" target="UEzPUAAOIrF-is8g5C7q-178" edge="1">
          <mxGeometry relative="1" as="geometry">
            <mxPoint x="323.9933608734143" y="-710.4999999999999" as="sourcePoint" />
          </mxGeometry>
        </mxCell>
        <mxCell id="UEzPUAAOIrF-is8g5C7q-196" style="edgeStyle=orthogonalEdgeStyle;rounded=0;orthogonalLoop=1;jettySize=auto;html=1;startArrow=none;startFill=0;endArrow=open;endFill=0;strokeColor=#808080;strokeWidth=2;" parent="1" target="UEzPUAAOIrF-is8g5C7q-179" edge="1">
          <mxGeometry relative="1" as="geometry">
            <mxPoint x="507.0000000000002" y="-710.4999999999999" as="sourcePoint" />
          </mxGeometry>
        </mxCell>
        <mxCell id="UEzPUAAOIrF-is8g5C7q-198" style="edgeStyle=orthogonalEdgeStyle;rounded=0;orthogonalLoop=1;jettySize=auto;html=1;startArrow=none;startFill=0;endArrow=open;endFill=0;strokeColor=#808080;strokeWidth=2;" parent="1" target="UEzPUAAOIrF-is8g5C7q-181" edge="1">
          <mxGeometry relative="1" as="geometry">
            <Array as="points">
              <mxPoint x="355" y="-689.5" />
            </Array>
            <mxPoint x="429" y="-689.5" as="sourcePoint" />
          </mxGeometry>
        </mxCell>
        <mxCell id="UEzPUAAOIrF-is8g5C7q-200" style="edgeStyle=orthogonalEdgeStyle;rounded=0;orthogonalLoop=1;jettySize=auto;html=1;startArrow=none;startFill=0;endArrow=open;endFill=0;strokeColor=#808080;strokeWidth=2;" parent="1" target="UEzPUAAOIrF-is8g5C7q-183" edge="1">
          <mxGeometry relative="1" as="geometry">
            <Array as="points">
              <mxPoint x="576" y="-689.5" />
            </Array>
            <mxPoint x="507.0000000000002" y="-689.5" as="sourcePoint" />
          </mxGeometry>
        </mxCell>
        <mxCell id="UEzPUAAOIrF-is8g5C7q-197" style="edgeStyle=orthogonalEdgeStyle;rounded=0;orthogonalLoop=1;jettySize=auto;html=1;startArrow=none;startFill=0;endArrow=open;endFill=0;strokeColor=#808080;strokeWidth=2;" parent="1" target="UEzPUAAOIrF-is8g5C7q-180" edge="1">
          <mxGeometry relative="1" as="geometry">
            <mxPoint x="778" y="-710.4999999999999" as="sourcePoint" />
          </mxGeometry>
        </mxCell>
        <mxCell id="UEzPUAAOIrF-is8g5C7q-201" style="edgeStyle=orthogonalEdgeStyle;rounded=0;orthogonalLoop=1;jettySize=auto;html=1;startArrow=none;startFill=0;endArrow=open;endFill=0;strokeColor=#808080;strokeWidth=2;" parent="1" target="UEzPUAAOIrF-is8g5C7q-184" edge="1">
          <mxGeometry relative="1" as="geometry">
            <mxPoint x="739" y="-671.5" as="sourcePoint" />
          </mxGeometry>
        </mxCell>
        <mxCell id="rpwozrU7dxwrfLIHk87M-6" value="RED DEL PRIVADO" style="swimlane;horizontal=0;whiteSpace=wrap;html=1;" vertex="1" parent="1">
          <mxGeometry x="90" y="-800" width="520" height="240" as="geometry" />
        </mxCell>
        <mxCell id="rpwozrU7dxwrfLIHk87M-16" style="edgeStyle=orthogonalEdgeStyle;rounded=0;orthogonalLoop=1;jettySize=auto;html=1;exitX=0;exitY=0.5;exitDx=0;exitDy=0;entryX=0;entryY=0.5;entryDx=0;entryDy=0;" edge="1" parent="rpwozrU7dxwrfLIHk87M-6" source="rpwozrU7dxwrfLIHk87M-8" target="rpwozrU7dxwrfLIHk87M-15">
          <mxGeometry relative="1" as="geometry" />
        </mxCell>
        <mxCell id="rpwozrU7dxwrfLIHk87M-25" value="RTSP" style="edgeLabel;html=1;align=center;verticalAlign=middle;resizable=0;points=[];" vertex="1" connectable="0" parent="rpwozrU7dxwrfLIHk87M-16">
          <mxGeometry x="-0.0365" y="3" relative="1" as="geometry">
            <mxPoint x="23" y="26" as="offset" />
          </mxGeometry>
        </mxCell>
        <mxCell id="rpwozrU7dxwrfLIHk87M-8" value="" style="shape=image;html=1;verticalAlign=top;verticalLabelPosition=bottom;labelBackgroundColor=#ffffff;imageAspect=0;aspect=fixed;image=https://cdn1.iconfinder.com/data/icons/social-media-vol-3/24/_video-128.png;rotation=-180;" vertex="1" parent="rpwozrU7dxwrfLIHk87M-6">
          <mxGeometry x="60" y="69" width="38" height="38" as="geometry" />
        </mxCell>
        <mxCell id="rpwozrU7dxwrfLIHk87M-18" style="edgeStyle=orthogonalEdgeStyle;rounded=0;orthogonalLoop=1;jettySize=auto;html=1;exitX=0;exitY=0.5;exitDx=0;exitDy=0;" edge="1" parent="rpwozrU7dxwrfLIHk87M-6" source="rpwozrU7dxwrfLIHk87M-9" target="rpwozrU7dxwrfLIHk87M-15">
          <mxGeometry relative="1" as="geometry" />
        </mxCell>
        <mxCell id="rpwozrU7dxwrfLIHk87M-9" value="" style="shape=image;html=1;verticalAlign=top;verticalLabelPosition=bottom;labelBackgroundColor=#ffffff;imageAspect=0;aspect=fixed;image=https://cdn1.iconfinder.com/data/icons/social-media-vol-3/24/_video-128.png;rotation=-180;" vertex="1" parent="rpwozrU7dxwrfLIHk87M-6">
          <mxGeometry x="60" y="107" width="38" height="38" as="geometry" />
        </mxCell>
        <mxCell id="rpwozrU7dxwrfLIHk87M-19" style="edgeStyle=orthogonalEdgeStyle;rounded=0;orthogonalLoop=1;jettySize=auto;html=1;exitX=0;exitY=0.5;exitDx=0;exitDy=0;" edge="1" parent="rpwozrU7dxwrfLIHk87M-6" source="rpwozrU7dxwrfLIHk87M-10" target="rpwozrU7dxwrfLIHk87M-15">
          <mxGeometry relative="1" as="geometry" />
        </mxCell>
        <mxCell id="rpwozrU7dxwrfLIHk87M-10" value="" style="shape=image;html=1;verticalAlign=top;verticalLabelPosition=bottom;labelBackgroundColor=#ffffff;imageAspect=0;aspect=fixed;image=https://cdn1.iconfinder.com/data/icons/social-media-vol-3/24/_video-128.png;rotation=-180;" vertex="1" parent="rpwozrU7dxwrfLIHk87M-6">
          <mxGeometry x="60" y="145" width="38" height="38" as="geometry" />
        </mxCell>
        <mxCell id="rpwozrU7dxwrfLIHk87M-20" style="edgeStyle=orthogonalEdgeStyle;rounded=0;orthogonalLoop=1;jettySize=auto;html=1;exitX=0;exitY=0.5;exitDx=0;exitDy=0;entryX=0;entryY=0.5;entryDx=0;entryDy=0;" edge="1" parent="rpwozrU7dxwrfLIHk87M-6" source="rpwozrU7dxwrfLIHk87M-13" target="rpwozrU7dxwrfLIHk87M-15">
          <mxGeometry relative="1" as="geometry">
            <mxPoint x="190" y="174" as="targetPoint" />
          </mxGeometry>
        </mxCell>
        <mxCell id="rpwozrU7dxwrfLIHk87M-13" value="" style="shape=image;html=1;verticalAlign=top;verticalLabelPosition=bottom;labelBackgroundColor=#ffffff;imageAspect=0;aspect=fixed;image=https://cdn1.iconfinder.com/data/icons/social-media-vol-3/24/_video-128.png;rotation=-180;" vertex="1" parent="rpwozrU7dxwrfLIHk87M-6">
          <mxGeometry x="60" y="183" width="38" height="38" as="geometry" />
        </mxCell>
        <mxCell id="rpwozrU7dxwrfLIHk87M-42" style="rounded=0;orthogonalLoop=1;jettySize=auto;html=1;exitX=1;exitY=0.25;exitDx=0;exitDy=0;" edge="1" parent="rpwozrU7dxwrfLIHk87M-6" source="rpwozrU7dxwrfLIHk87M-14" target="rpwozrU7dxwrfLIHk87M-23">
          <mxGeometry relative="1" as="geometry" />
        </mxCell>
        <mxCell id="rpwozrU7dxwrfLIHk87M-43" value="Ethernet" style="edgeLabel;html=1;align=center;verticalAlign=middle;resizable=0;points=[];" vertex="1" connectable="0" parent="rpwozrU7dxwrfLIHk87M-42">
          <mxGeometry x="0.0365" y="-1" relative="1" as="geometry">
            <mxPoint as="offset" />
          </mxGeometry>
        </mxCell>
        <mxCell id="rpwozrU7dxwrfLIHk87M-14" value="XTAM VIDEO" style="shape=image;verticalLabelPosition=top;labelBackgroundColor=default;verticalAlign=bottom;aspect=fixed;imageAspect=0;image=data:image/png,iVBORw0KGgoAAAANSUhEUgAAAOEAAAAsCAYAAACTxd8QAAAAAXNSR0IArs4c6QAAAARnQU1BAACxjwv8YQUAAAAJcEhZcwAADsMAAA7DAcdvqGQAAAnRSURBVHhe7Z3ZixRZFodvltruWu7groiC7YaC4g7utrig4LigCG13qw8++OA/IIPz4oMP6syAKEKrL6Oi+OD+oIIbLtDtzrjv+75VWeN3iZ9zO7syM6LsrKrU88Hh3rgZERkVcX/3nLtEVmrt2rVlFy9edIZhVA2pn376uaxOndoulUpFRYZhVCaphQsXltWtWzfaNAyjsimKUsMwqggToWFUMSZCw6hiTISGUcUkGph59+6dO3/+vLtx44b7+PGjq1+/vqtXr5438ljt2rVdjRo1vBUVFXkL8zYKaxQS1PPS0lKfhnnSDx8+uNevX7tXr155U76kpMQ1bdrU9ezZ0xUXF0dnykxsEfLFx44dc0ePHvUXkImaNWs6zofVqVPnD3nEiki/++67z6nytWrV8scaRmVCvUZM79+/905GqfJv3rzx9vbt2895GceVlZVFZ/ozHTt2dBMmTPD1OxuxRchF7N69212+fDkqSYY8IEJDcKGFwmzQoMFn70peAuYz86JGRUAsEg7e6uXLlz7FKJPw2E9GGR4NkWUTWjYaN27sJk6c6Fq2bBmVlE9sEXJRiDCfq2sQmUyhq0JbRCphNmzY8HP4SxnXj7i1bxj+Wgj89aCQUOFgaPJUCIyQkPTFixc+j8AQlI6VsJTPF4SikydPds2aNYtKyie2CLnYw4cPuxMnTviLrw5IrAgQT8nfEZrC4dDTKo9JuCbS6gFiQizyRBjikqeS0MgjrjBEDEVWXWjdurWbOnWqr2vZSDQwc/XqVbdz505/EwoBeUKElh4Gh6JU+CsLhctxnMP4MmjEQ4EhHIWEMkRF3eLzMDTEJDJ5sUJgwIABbvDgwdFWZhKJkBuxZcsWd/PmzaiksJEHJE03hIsIESweldCX+4QpHwo1PQxWnnNJxDp3oaDKroovT5NueDCJJV1gYT4Ul84Zmr7ra4B6MXv2bNekSZOoJDOJRAjnzp1zu3bt8jf/W0biQoDyshKlUnlc5WWhZ1Y+FLIEXJ544wo5rNTpeQknNIRBSkMbGsJRKhGRymMpZR8dr+/7lunevbsbPXq0f5a5SCxCOrzbt293d+/ejUqMXIQeUZYuuFB46Z8j0HAfleucQgILPVS6IZLw8/S89lN5aEY8iJTGjBnjOnXqFJVkJ7EIedBnz551Bw4c8C2gkX8yeb7yyjN5oW/FO9EoEXlwb/DS/N1sh41VeeDhaWiITjiWus02jR3Hcx6dLxt8T48ePdzQoUN9RBSHxCIEhn737t3rB2q+lYdrFAbNmzd3M2fOdO3bt/fjFwhnypQpfsAtGww4XrlyxR/LNNjmzZu9s5k+fbrr16+fu3fvnluzZo2PBLPB9Nn48eNd27Zto5LcVEiECI++4b59+3wLYhjVBSbIV6xY4ebNm+cOHjzoB4bomxHSZ4Nj2H/9+vVesMuXL/erw1atWuXDyh07dri5c+e6p0+fRkeUD0vVRowY4T1oXIpKSzIvQcsE7rpbt26uVatWUYlhVA+ePXvmPSCea/jw4T4sXLZsmRs0aJA7c+aM92SsYlm6dKkXFNMi9IEJIQcOHOhFTPg5f/587/lYesbnzJEzN5kNRtHxmkkECEVv3ryOssngi9q1axdtGUb1AAfx+PFjLy7yrPDatGmTa9SokQ8RmV578OCBmzRpkq/DW7dudc+fP3ddu3b1gkVwHN+mTRvvERnIevLkiQ9Nc0V9rIwhHE3KF81C24iZUd3AMSxZssQLDtHQNySvNxrwhnPmzHH9+/f3gzCID7GxT58+fdzt27fdxo0b3Z07d7xHxXNev37dj3/koqJ6KKqRI1bOBBdX0cXchpEP6B6tXr3aD4ysW7fOG68ULV682E8ZAIIj1Lx//747cuSIH7ih30ifkbGRQ4cOuZUrV7pFixb51/YoZ/zj2rVr/vhscM5bt25FW/FJLViwoCzXyFE6uOzjx4/nfK3JMCoLQk+824wZM3x/cMOGDd4Lss1qHbwU9RzR0XdjEGb//v2+Dzht2jTXoUMHP+DISwoYeV5DIkRlXwZm4swE0IekEUgy2Fmh0VEm6rnQhw8fRiWGUfUwoEI/D8dAKKo5w3QQE309DPGG84gcRzloRZP2jQNzg8OGDfMDPZw7DolFSEtCC4KLNpLDg9HD4cFjPGhM+bBcy9nC/WSch3Kdj8qFqRLS+mNUIMpC02fKh2U6D2Ykp0WLFm7s2LE53yMUiUXIhCYTm7Za5o9IXIgC4dC6hkarmp4nlbHNcdomj0l8pLK4IKJ0galVxxCqTOs/lceUV0oDHJZJsKTG/+EZ9e3b1w0ZMiTW80okQh7mtm3bYnVSCx15F5C4EANiCd+ooJ9BSj9DhohCjyURKZWF31FdkKhCAYfeUiYx6p0+pXrPT29QIOx0obL9tUOdmDVrlu9z5iKRCC9cuOD27Nnjb36hQYVXaCcvE+YRDvE8opKwJDaERcrniMeIB2KTUCVSvdYkwUqoiJoUgZOG+UL1tL179/arZ3I1trFFyE2iL8ikZXVsySQiPBUpwiFPyrZMnysfmgms8qEuyavKCHuxMI8hZJWFedLqWCeZvGfdai5vGFuErBrgPUImM/NFeggoEIe8EaYfgMJTyVshovLCQHk8E1jhgifE5B1l2kaECoGZv5a3DX8Cg31FKNh8ipeIatSoUa5Lly5RSfnEFuGjR4+8CCvyHqFEIEFgEgxlCIhrQGgSFX8AeVLK2Rdh5nLthiEQGIaA8ZgKhxUGS6wIlc/xyBK3TILnHEkFS70dOXKkX2edjdgipLU5efKkO336tL9wkd6nQlAKAZUnDfPsG5azLYGZyIzKREJFcNRxhbgKc7UdlmMSLuXqz2Lqv6KJzp07+zlD1q1mI9HADF+KR8Tl0zpIRBKhvFxoeECFgiYwoxAJPao8Y2iIDyFiaATQFH1Cuk65SCRCwzD+emy0wjCqGBOhYVQxJkLDqGKKkg67Gobx15L68cf5ZfXq1c04mV2R+ZEQzmujovnjY2mp09Oxe51fGAn9EjI9n9SpU6fKeJv4w4c/vy9VWlriTp444a7890qFhMgXjhk3zhXH+ClwIzk8k507dvgfN6rx6QGP++EHu9d5orSkxO3Ztcvf64rQuLjYDR02zNUvZ8oi9elBZlQXyt+7e49/3f/xo0dRaTxQPa9z/P0fy2OtJDeSw6Pb8p8t7umTJ35OdtLkSa5pjn/DZVQMIsJ///NfbuOvv/oJ+iTwbKbP+Jv7+Zdf/PxhOllFCHzhpYsX3aVLl1xJzJ9HxOPyjzC6f/+9/90PC5HyBy20HiAP2+51/mCRyu+//e5u3771yUHFe7OjqCjlWn7SQK9evTKunMkpQsMw8olz/wOST1kwrjn9xQAAAABJRU5ErkJggg==;labelPosition=center;align=center;" vertex="1" parent="rpwozrU7dxwrfLIHk87M-6">
          <mxGeometry x="198.87" y="64" width="102.27" height="20" as="geometry" />
        </mxCell>
        <mxCell id="rpwozrU7dxwrfLIHk87M-21" style="edgeStyle=orthogonalEdgeStyle;rounded=0;orthogonalLoop=1;jettySize=auto;html=1;exitX=0.5;exitY=0;exitDx=0;exitDy=0;entryX=0.5;entryY=1;entryDx=0;entryDy=0;" edge="1" parent="rpwozrU7dxwrfLIHk87M-6" source="rpwozrU7dxwrfLIHk87M-15" target="rpwozrU7dxwrfLIHk87M-14">
          <mxGeometry relative="1" as="geometry" />
        </mxCell>
        <mxCell id="rpwozrU7dxwrfLIHk87M-30" value="Red Local" style="edgeLabel;html=1;align=center;verticalAlign=middle;resizable=0;points=[];" vertex="1" connectable="0" parent="rpwozrU7dxwrfLIHk87M-21">
          <mxGeometry x="-0.0833" y="2" relative="1" as="geometry">
            <mxPoint as="offset" />
          </mxGeometry>
        </mxCell>
        <mxCell id="rpwozrU7dxwrfLIHk87M-15" value="DVR PRIVADO" style="shape=image;verticalLabelPosition=bottom;labelBackgroundColor=default;verticalAlign=top;aspect=fixed;imageAspect=0;image=data:image/png,iVBORw0KGgoAAAANSUhEUgAAAKAAAAAoCAYAAAB5LPGYAAAAAXNSR0IArs4c6QAAAARnQU1BAACxjwv8YQUAAAAJcEhZcwAADsMAAA7DAcdvqGQAABVJSURBVHhe7Vxnd1vXlT3sBEiABNjABpAE2FVI9a7IsqWxnWUv54s9a+Zr4pk18yPiHzEzHzKZeK2seDKTZEUuY8lqlCzZsSyLvYK9F7CCAIvY5uwDPDQCIAhTsiVzJ7CIcvDue3fffco9DzFbDNrHPn4geAiI/25ubvC/+3zcx/NBTEyMl4CdnZ30x//+I9mmp11s3Mc+njFSUlNcBNzc3KQPP/yQJXCLjEaj++197OPZYmxszEXA9fV1+s1v/pP0Oh3lZGe7397H8wKcENxRtIA9EO137MXxo7F3OBwBBNTrKScry/12cGywWjqXV8k2v0iLS6vyPBrEx8ZSmkZNGdoUSklOotjY6C/AiwZc72kOdSYnJmh2dobW1tcojq+HRqOlvPwCyszMpOTkZPentwP2s7OzNDE+5rGPjXHZ5xhyKScnZ0f7hYUFGh0doZmZaX6+xgSCvYYMObmUxSKkVqvdn94OxR7Hn7JNiT3TX45v4ONnMYdgvxMpd03Ap2vr1Dtqo/YBPnG70/1q9ADpMrWpVFWcR+aCbL6ILz8Jl5aWyNrVSTGxm1RebqHiYhOlciy0uvqUJ3SSmprbyOlYIVNRsRAxcBKXnE7q6e2hjY2nVFFhoRLYa1LpKduPT0xSW1snzc85yGQqEiIF2i8vL1NvTw+trDipurqciktw/FRa47kdHx+njnYrk3JBjp8dxH51dZW6rVaxLysvobKyUhn/xsYGjY9NUHt7F9lss2Q0FVNubq7bKjh2RUAoXdfQBNV3DdEyn+xeAgp45qCZinIz3a+8nFhZWaGmpkYmRx6dOXOCUlK2q8zTp2vU3NxK9U9aqKr6IKWlpbnfcU1+W1srK0w6nT9/ShQrECBCM5P4yXfNZLaUCYkV4L2mxkbKyNDS2XMnSadLd7/jxfr6BlmtPfTwwSMqKbGwohrc77hcbUNDPenSU+kcHx/2gQQFl/r6BununQdkKS0XNQ4FEDDW/feOcCytUHPPyJ6TD3CurFJr3yjZncvuV14+INHr7+9jVcikCxdOByUfkJiYQLW1h+jo0UNMthZPfAcMDw0x6ZLp0qVzQckHxMXF0eHDB+jI0YNMhF4mtHe+RkZGKCEhhl597WdByQfEx8dRZWUZnT5zjIaGBkWxFQwMDIj9lauXWKx028gHxMfHsyqa6bUrF1kpu8jJih0OERNwdHqeY74V97PQQCyTwCfh+4gkvptbXKKpuUX3s5cPmEiHw07HjtVQUlKSvAZyTU/PUGeHlUZHxsQNAiBRTe1BUiUn0tTUlLwGAg8PD9K5c6dIpVLJa7CfmZmlrs5ufm+U7RGLIbSJpUOHqik5KU5iRQDvdXa00xtvvsbxoff4s7Nz1NXVTYODw6JeAIhVXl5KOr1GYlVgldV7cKCfXn31oie+hP3c3LzY97PqKfaA0VhAJWYjn9eI3yIKRNyvGTi5+vp6ObHUlBT3W/7oGZnakSB6Tiiqi/OpOC+TCrP18ijI0nGikcoq95RW3Rc4GDDGbJ1GHsFW1ouO+fk5JsEKHT9+xLMgBwaG6N69r2hsbIq6u/v4dWKX5Yq7QKL4hHhqbmqjwsJCmmMiraw66fTp457rM8Kkq6t7yMo2IW4PyQDsYYvHFs+rtbuf8vLyaNpmoy1ap5Mnj4otMDk5Rbdu3mP7SRroHybnkpPy83PFFotgZWWZVXeMstmNTrF9fAKJukLlgIUFO336yQ0ev436B4bJbrcL8TA+l/0KJzoT7PIz5HkgoM4RK+D6RvhsF6u1tsxIB835VGY0eB7lxlw6XFpItaXGsMTa4v9Fm1G/CIAryszQ80S4Lrkr1mtnV5xGVVUHOC4skbhtednrZQyGbFp0uBb99MwMEzFfyAFALTtZ+WLjkqiS7QsLTZzc9IsiKchjMoH4AJQQ9r5obelguUuQ4xcVm6m3d5AV1+Z+17UYHO7jLy4uUlZmhod8QP2TJialSuwrK6s5Aekm25RLMYH0dMSvm37KGIiICbgTtOpk0mtSxAWDZp4H/yeeL3oeB874NyxYBUOL9YuNTV7AUDQFSAjgFtXsdRISEiQTXeH4Gt5IgZDN7b42eBIT+XMK8LlVVhB4rcTERFKrORPl1xQ3DoAsyvfhvXhImA+cS8tSLoE9vgelGGTjCnzt8W8ch1O+ImJnUmq1Wo99XCyrHidKCpTFFs4F7xkBZVjesW2Da9xhPvCSI5knaH5+wf2Mn3McZjIVsOvqo46ODslOzWaTJz4DFhcdlMCTC2g5G56yedUFyQrc3djYCCtPG7W2tnDGq+MM1Zs1Qw2Veh4IPsPxpi/KOVkYZ/u2tjZqaWnmxEZN2dneKgjGi3EDIJjdvigLRwHccX9/Lx+bs/b6J5yxp4pqKnA6kcC43HEo7BkB9xEeKRxbz80tsEtzZYVQEiQKFy+eoqysNM5aD9DZsydFDRW0tnZwTFYgf6O4Ozw0SituFw17JAqXLp3hSddx5lzF9idIpXYRBmhv76S83Dz5GzW93t4BPwKZLcV0+dULlGvQ08GDZfxdZ5mw3gRnoH+I3agr20WJbpRjTV+FNJkK6eqVn1E+x/zl5cX0d69f9iwgKObkpI3JF+93ToGIuA74oKmbOgfH3c+2I0evpQs1ZZSeGry8gFLLn+5+R2vr3gvgCwTmR8tMdIjjxd0WpHGyqMxjbxGxTriYI1pASQwGg6fKv1tgTG2sUmZLIZ04cczjngCMH5OsuDdMPrLiP//lMyboJU/c1djYwJOeK0T1VZVg9siKr1+/w8Q8JuoFoIZnMhk4kz4d1h4YHR2jW7e+JHNJKaXrdPKdDZyomopy6fz5M2HHD9hYrT/77CYVFVn8apG+2FUheicCZrL8Xqgtl621YJhfXKK/flkfMpmJloAYu7Wri+7dvy8pv+8K30vg4mIiKyor6fIrr1BGiIsaDihp9PZY6ey541RRUeY3YQow0RMTk5yd3qfMrBxOHLzNIVhknZ1tTOBaqq6u9COBL5BI3Lp1n11qOhOg2HMcZKWPHz9iAh+n6qoKv5jUF3DdN27cYTefQhaLxZP4iP23j+j0maN04EAVK1tweztnxze+uMvnEs/JSWXQ8wRAwIjLMEOTszS94HA/2451/o5UVZIQMbDuB9XrYPKOz3hjoEBgkHkZ6ZSTkRZywIHAZPX09ND1zz+XbSScx7MEkoaJiQmp6ZlMJk89L1JIoM6JQFNjs5Q4MjL1EsArwGKC26yr+4rS0jOEfMrkAzheQkKi7HQgO0W8BhIo1wv2Pd199MUXdUI+bMf5Kh3+RrLS2tImniI31yCxpAIkMD09vULe5ORUKikx+2W9+Bv7vS3NrTQzO8PeIMNTEwTk+D39dPv2fc7OE9ktl/sdPxAow8TU3a3bgmrcraujQwcPhuyG2UkBgUS+GFnpGlIl4aRcFwUkQfPCrN1BT0O4XyAaBURp4Nq1a9TOQTSO87wAIl29epVOnjoV8WJRINfD6aTu7m5OCqaYhJw46NKZ1MtM7in+7hQqKyvn2Cs96OTBXvZze3ukGSAzSy/lDsSGExxzxccnsjpWc0IQxp4X0ODgALvpIbHX8bGwzTcxOUXxTJxSPj5CDV/yK1CO77F3Jz4g3+jYBGfCCWQpLZOYMxz5AHHBJ48dl5lTcVzzq/ff54DUu/fni0gI+H0QDQGxtfTh734nJ/I8AdIdrqmht956K6p4UAEUFW4VhIQS6jjWCtfFEghM+vz8vCgyAn2QVon3IgFKO7B3wp7VDbHebuzhcVAgx/FjmWwY/26ux672gn+MQEyCx/OGoiJrPvus0QCkQYCOnQ4kOLshHwCXCPuCggLpPNkNeYA4tkcsC3tDFPZQSLHn8WO3JZrFGPMP7/09X88tWmJZfffdd+VCBEMkCgjdimElC1SwTf7+zc3wLjIaBYQbgwI+q8QjHMrKyuidX/xCVv1ugesN5bFareyGsfOwxa9xpp2SyslJBaGDJJj7UwB7bHt1dXZyYuNvj6QhP9+7YxIMMt+suu3t7Zytuvaa8RriQ0uphcmc5xf7BQKfVcKIsdER9gh4zVXrLLWUUi6TMVzpRYG4YJZxyYJ/+9v/kj27aLNgEKjIkEG1TCK0VynAFtuCY5karIM0POXaFgqGnwoBET9Jl8iSnU6ePEZmc7HUztAGhb3Zhw++4fdWJYDX6fTi7n0Bd9fX28uue5ZOnT7GhCvxs//mm+9ofm6RypnIen3GNnt4jJ6ebk5CbNISVlpawslNMgsE7G306NF30g9YUV5JeuZDoD1iRdjPzU7TkSOHqPpApSRHW1ubnH1Py/HRD1hWViFxZKC9LyQL/uCDD36NJ/X1DSLB0WbBWrWKjlcVSxKCLTfvI06yYzW7l75Rm6yeYMBAd5sFI5NrbGwM+Z3PElisKDHsxm2BfO3ufr63336TXV+exH5QKygOkgm0QhFPJrJhZJy+bhmTD9XTpqnY/nUyGgu32VdVlfNzora2Dh6b2s8tYqGin1CrUdHPf35VmmFhj3IO7NPStKzApWyTRE1NLZSUmEQpqalua1fMB/sUdaJ01ViEvC57JBxarYYXjoU0qSk8L82UyMTGDkwoIAveszIMCtDm/GxKlgx4O0AqlGJCueJoCIgVNDw8LLsMONHn+UDMBHcXaSkG17i/v5/HmkiXX70YkriYyBxDNicIa0zWLomvFCDr5NSDrly5JGMIBly7nJwsJts6K22vZKNIEAAU6peX7fTGG68J2YIBZM7MzBCPZO3qIZ1e73Gn6EdcXlmkN9+8ImQPNk8u+0whcUN9M2VlolQUnBNShmH12JNCtEGvpfM77oQ8oTU+VjBE44KhfBj7DwFcfJAl0sWCmKm9vYVef/0yx1iuLmGMH/ur2POFG8WkKrEXXOrvf/8/rHIlQiIQ+N69O/Tee+949lthj1IU7LEQ/O3X6aOP/szxYJHY4/ntWzfpl7/8R852Xc2osHewrR17zgnxPP86jz3IgVYrlTpNkiSo79dfP+Q84W2f47tEAOeAawHioqEVQIZ/5/Z9DhnWWSlLg16nFz4Lxklhdf0QD0xUpOQDQEC1OlnUScHQ0Ah99ukX9MknN+naXz+nttZOIRqAiTxx4ojcvwEgaUlP00jxWcHY2Djb36RPPmb7a9fZbbZ6FiTGh71ml2oSx3UzrNpZHvIB2DH5VOy/oI+v3aAnTxqF+ABcc4m5iGO9GSGq2LMyg+QKUEL6+NrnYo/jf8vxozJ+XKNCYz4r5pJnTMHw/Aj4/MO0HxWWnA6OG3XiogD0A4IwKrWWzp49R8UlpfT4cYNfWcnASqP0A85MT7MSuZo9AexatLdbZcfh9JmzHM9Z2GVbOQHx7jahuXSBiQsgXi4o2N4PuLUVy8nMGSqvqKKO9m7p0FaAxeLgcQOufkC9RyGBhoZmVoEEsa+tPcrPW2na5rUXN8/kfS4ERLcz7poLBbhgZXWEROSC8sIBe+C+/XxICEBCxHIgJfrqVvgabfjslcdycK8sXIQuCPgVIGuFW0xJSRX3hzgYLvHpWvB+Pukn9Nl2AxYdTtJw4oDPISZFv+AKJ0oKxN5dYcDxUDf0VX2QHVUAxR6tYyjnKcC4MKdQ0FCImIAcooXFvGOZOgbGaXLWLvd3eB9OGpuepwbr8A4dz65uipeVg2hzmptf8EwGYr7CwjwaHR2mgYF+VrM2dnlB+gHdpMXdcb7dynCRyKInJ8epv6+PerqtpOcEDrshCtBUgB0uIFWj8VMnABnr+PiY3LyE0opKleiJ7wC/fsBkFdkXAvoBaw7SQH+flIU6Ozsk8VDiW2BP+wHRch8OuLC4b+TLRis/uryPBjy30siU6+aYUIhjhmMveTdx1YuEFHUKT6jdPSk8LXyeNTyBtTVVlBC/RRZzodTlFMIBbegHLHD1AyKzHBkZlz1jAPYo2Zw4fpgSk2KoqDhf7H37+To6uqSoDKAm19c/5OcOUYM8e+YYJSfFUl5eJl165bynnxDKOTgwzIR29wNmZHDMOSEqrQD9gBcunuJFE0sZeo1k10pVAPZT2JveoR8w4jIMFm7fWOg6HoB3Vtit4AYk3wdcc2grFzSqZKowGiiVA/WXEVABKBiSRAOrBCYVrstgyKGiIiMZTQV+pRn009Xd+4oOH64RW3wWicDm5rrEdop9NsdpxcVsbyxg8nkrECgqP/62kcyWUlFLkAD2uHFJscf3ZmVnMnmNMgZfexurZUNDC+Ua8kVF8R3jExP8zibb54k9KhfZbvuSkiI/e2TGX3/1mHIMeRTqFtJd3ZSEAnNpQbbc87HXwHeaC7IoSxe8NvUyAAQwGU303ZNm6u7u9S5kFnz05SnJCV4Hef7vs5vsIitl4hWgy6SpuV2K1EpspxBRsQfgau/cuc9Ez/eQAp8DmR9/2yBFakUJg9nD9dbdfcC2WqkDAvhcTU0tPfqmXjq1lXtPgtkjdLh1q46VWSUloHCIWAFBkrRUlSgcbiDH/u5eIJElwVKQQzWlRvn7ZQbIEBsbRy3NbXKfrYYTALgsTCKApAI/rfHw4SNOTtJZ1Yx+E4vPIlEAgZwOB6Wlp/nZwz2i+Hz//tdMXDWrUolf/AWiYL8Y/YALC/NS9ws8PhYHtgM3t+K29fPh7zR2ydjlsC8skDZN46d6UDTYP3jwN/6uTaquPuA3/kDsqhANgHJLy6s0YpujgfFp+XGiza0dMtsQAKF1GjUZczIoP0vn7iH8aWBubk5+dWBxcYHUqiT5bReUXxbtTg761RyPFUjMBsIEAgqJ+tvI8BDNL8xJ4qDhTBr3aqCgnJiQzHFjIScTOX7kUQB7NDKgiWBmxsb2ruOvsbAssNuEPX5gKC8/P6T9ItuPsP3s7DTHj3x8tl/fQGuXnZU+SX7gCPbBxu8LaUbYDQEVYBBQQP7/9wIWHn7Vyb0Af1KA18FuATqjoVzYicDeLVxusIkPhMd+eVmUCyUS3OKZyIoWiT3mEAoEe9xKCbLAA0IRI7UHb9AcgeND6aCGsMffiqqGg4eASK1BwDStNmRD6j72sdeAJxACMjhovE337t2T9uxQQFFSCX6jAVaFrI4wccE+fhzAz3p83zY3zLXEgEHUEJyz2WwuAuIFyGhfXz9NTU5yrLfdt26sb3Bw/JDq7tyJmoQopr79zjvS9LiPHzfQZfSX//2TbOFFA7jxEydP0pWrV+UXFQIBMULI5yFgJMAd/P/xb/8uPWm+Bc1IgL62Vy5fpl/90/sh60L7+PEAt1Z+9Ic/0I3r12UfeDeA6pnNZvrnf/0XOnz4sPvVYCD6f2lWyQE4NXFAAAAAAElFTkSuQmCC;" vertex="1" parent="rpwozrU7dxwrfLIHk87M-6">
          <mxGeometry x="210" y="144" width="80" height="20" as="geometry" />
        </mxCell>
        <mxCell id="rpwozrU7dxwrfLIHk87M-23" value="Router 4G" style="fontColor=#000000;verticalAlign=bottom;verticalLabelPosition=top;labelPosition=center;align=center;html=1;outlineConnect=0;fillColor=#CCCCCC;strokeColor=#3D3D3D;gradientColor=none;gradientDirection=north;strokeWidth=2;shape=mxgraph.networks.wireless_modem;" vertex="1" parent="rpwozrU7dxwrfLIHk87M-6">
          <mxGeometry x="380" y="47" width="50" height="46" as="geometry" />
        </mxCell>
        <mxCell id="rpwozrU7dxwrfLIHk87M-28" value="Cámaras de Privados" style="text;html=1;align=center;verticalAlign=middle;whiteSpace=wrap;rounded=0;" vertex="1" parent="rpwozrU7dxwrfLIHk87M-6">
          <mxGeometry x="70" y="34" width="60" height="30" as="geometry" />
        </mxCell>
        <mxCell id="rpwozrU7dxwrfLIHk87M-47" style="edgeStyle=orthogonalEdgeStyle;rounded=0;orthogonalLoop=1;jettySize=auto;html=1;exitX=0.5;exitY=0;exitDx=0;exitDy=0;" edge="1" parent="rpwozrU7dxwrfLIHk87M-6" source="rpwozrU7dxwrfLIHk87M-46">
          <mxGeometry relative="1" as="geometry">
            <mxPoint x="404.57894736842104" y="94" as="targetPoint" />
          </mxGeometry>
        </mxCell>
        <mxCell id="rpwozrU7dxwrfLIHk87M-46" value="SIM CARD" style="shape=image;verticalLabelPosition=bottom;labelBackgroundColor=default;verticalAlign=top;aspect=fixed;imageAspect=0;image=https://static.vecteezy.com/system/resources/thumbnails/005/567/972/small_2x/sim-card-icon-isolated-on-white-background-free-vector.jpg;" vertex="1" parent="rpwozrU7dxwrfLIHk87M-6">
          <mxGeometry x="380" y="129" width="50" height="50" as="geometry" />
        </mxCell>
        <mxCell id="rpwozrU7dxwrfLIHk87M-48" value="" style="shape=image;verticalLabelPosition=bottom;labelBackgroundColor=default;verticalAlign=top;aspect=fixed;imageAspect=0;image=https://dev-s33d3mn3w.us.seedcloud.co/sites/default/files/portfolio-images/Logo_une.png;clipPath=inset(22.78% 11% 22.22% 8.33%);" vertex="1" parent="rpwozrU7dxwrfLIHk87M-6">
          <mxGeometry x="433" y="137.5" width="80.67" height="33" as="geometry" />
        </mxCell>
        <mxCell id="rpwozrU7dxwrfLIHk87M-152" style="edgeStyle=orthogonalEdgeStyle;rounded=0;orthogonalLoop=1;jettySize=auto;html=1;exitX=0.5;exitY=0;exitDx=0;exitDy=0;entryX=0.509;entryY=0.22;entryDx=0;entryDy=0;entryPerimeter=0;" edge="1" parent="rpwozrU7dxwrfLIHk87M-6" source="rpwozrU7dxwrfLIHk87M-46" target="rpwozrU7dxwrfLIHk87M-46">
          <mxGeometry relative="1" as="geometry" />
        </mxCell>
        <mxCell id="rpwozrU7dxwrfLIHk87M-70" value="RED SECRETARIA DE SEGURIDAD MEDELLÍN" style="swimlane;whiteSpace=wrap;html=1;strokeColor=#B3B3B3;" vertex="1" parent="1">
          <mxGeometry x="790" y="-800" width="360" height="410" as="geometry" />
        </mxCell>
        <mxCell id="rpwozrU7dxwrfLIHk87M-74" value="XTAM CENTRAL" style="outlineConnect=0;dashed=0;verticalLabelPosition=bottom;verticalAlign=top;align=center;html=1;shape=mxgraph.aws3.traditional_server;fillColor=#B3B3B3;gradientColor=none;" vertex="1" parent="rpwozrU7dxwrfLIHk87M-70">
          <mxGeometry x="247" y="38.5" width="46.5" height="63" as="geometry" />
        </mxCell>
        <mxCell id="rpwozrU7dxwrfLIHk87M-75" value="ARCHIVER GENETEC" style="outlineConnect=0;dashed=0;verticalLabelPosition=bottom;verticalAlign=top;align=center;html=1;shape=mxgraph.aws3.traditional_server;fillColor=#B3B3B3;gradientColor=none;" vertex="1" parent="rpwozrU7dxwrfLIHk87M-70">
          <mxGeometry x="247" y="190" width="46.5" height="63" as="geometry" />
        </mxCell>
        <mxCell id="rpwozrU7dxwrfLIHk87M-76" value="&lt;div style=&quot;text-align: justify;&quot;&gt;&lt;span style=&quot;background-color: initial;&quot;&gt;Router Aterrizado&lt;/span&gt;&lt;/div&gt;&lt;div style=&quot;text-align: justify;&quot;&gt;&lt;span style=&quot;background-color: initial;&quot;&gt;&lt;span style=&quot;white-space: pre;&quot;&gt;&#x9;&lt;/span&gt;TIGO-Une&lt;/span&gt;&lt;/div&gt;" style="verticalLabelPosition=bottom;sketch=0;aspect=fixed;html=1;verticalAlign=top;strokeColor=none;align=center;outlineConnect=0;shape=mxgraph.citrix.router;" vertex="1" parent="rpwozrU7dxwrfLIHk87M-70">
          <mxGeometry x="30" y="133.5" width="50" height="33.18" as="geometry" />
        </mxCell>
        <mxCell id="rpwozrU7dxwrfLIHk87M-140" style="edgeStyle=orthogonalEdgeStyle;rounded=0;orthogonalLoop=1;jettySize=auto;html=1;exitX=0.5;exitY=1;exitDx=0;exitDy=0;exitPerimeter=0;" edge="1" parent="rpwozrU7dxwrfLIHk87M-70" source="rpwozrU7dxwrfLIHk87M-82" target="rpwozrU7dxwrfLIHk87M-139">
          <mxGeometry relative="1" as="geometry" />
        </mxCell>
        <mxCell id="rpwozrU7dxwrfLIHk87M-82" value="LAN" style="outlineConnect=0;dashed=0;verticalLabelPosition=top;verticalAlign=bottom;align=center;html=1;shape=mxgraph.aws3.vpc_peering;fillColor=#B3B3B3;gradientColor=none;labelPosition=center;" vertex="1" parent="rpwozrU7dxwrfLIHk87M-70">
          <mxGeometry x="120" y="125.59" width="50" height="49" as="geometry" />
        </mxCell>
        <mxCell id="rpwozrU7dxwrfLIHk87M-83" style="edgeStyle=orthogonalEdgeStyle;rounded=0;orthogonalLoop=1;jettySize=auto;html=1;entryX=0;entryY=0.5;entryDx=0;entryDy=0;entryPerimeter=0;" edge="1" parent="rpwozrU7dxwrfLIHk87M-70" source="rpwozrU7dxwrfLIHk87M-76" target="rpwozrU7dxwrfLIHk87M-82">
          <mxGeometry relative="1" as="geometry" />
        </mxCell>
        <mxCell id="rpwozrU7dxwrfLIHk87M-85" style="edgeStyle=orthogonalEdgeStyle;rounded=0;orthogonalLoop=1;jettySize=auto;html=1;exitX=1;exitY=0.5;exitDx=0;exitDy=0;exitPerimeter=0;entryX=0;entryY=0.5;entryDx=0;entryDy=0;entryPerimeter=0;" edge="1" parent="rpwozrU7dxwrfLIHk87M-70" source="rpwozrU7dxwrfLIHk87M-82" target="rpwozrU7dxwrfLIHk87M-74">
          <mxGeometry relative="1" as="geometry" />
        </mxCell>
        <mxCell id="rpwozrU7dxwrfLIHk87M-86" style="edgeStyle=orthogonalEdgeStyle;rounded=0;orthogonalLoop=1;jettySize=auto;html=1;exitX=1;exitY=0.5;exitDx=0;exitDy=0;exitPerimeter=0;entryX=0;entryY=0.5;entryDx=0;entryDy=0;entryPerimeter=0;" edge="1" parent="rpwozrU7dxwrfLIHk87M-70" source="rpwozrU7dxwrfLIHk87M-82" target="rpwozrU7dxwrfLIHk87M-75">
          <mxGeometry relative="1" as="geometry" />
        </mxCell>
        <mxCell id="rpwozrU7dxwrfLIHk87M-135" value="Text" style="edgeLabel;html=1;align=center;verticalAlign=middle;resizable=0;points=[];" vertex="1" connectable="0" parent="rpwozrU7dxwrfLIHk87M-86">
          <mxGeometry x="0.051" relative="1" as="geometry">
            <mxPoint y="-1" as="offset" />
          </mxGeometry>
        </mxCell>
        <mxCell id="rpwozrU7dxwrfLIHk87M-138" value="RTSP" style="edgeLabel;html=1;align=center;verticalAlign=middle;resizable=0;points=[];" vertex="1" connectable="0" parent="rpwozrU7dxwrfLIHk87M-86">
          <mxGeometry x="0.0703" relative="1" as="geometry">
            <mxPoint y="-1" as="offset" />
          </mxGeometry>
        </mxCell>
        <mxCell id="rpwozrU7dxwrfLIHk87M-134" value="" style="shape=image;verticalLabelPosition=bottom;labelBackgroundColor=default;verticalAlign=top;aspect=fixed;imageAspect=0;image=https://evtrack.com/wp-content/uploads/2023/08/logo_security-center_rgb_color_tm-1024x243.png;clipPath=inset(0% 79.33% 0% 0%);" vertex="1" parent="rpwozrU7dxwrfLIHk87M-70">
          <mxGeometry x="280" y="210" width="34.92957746478873" height="40" as="geometry" />
        </mxCell>
        <mxCell id="rpwozrU7dxwrfLIHk87M-139" value="SALA SIES-M WORKSTATION" style="sketch=0;pointerEvents=1;shadow=0;dashed=0;html=1;strokeColor=none;fillColor=#434445;aspect=fixed;labelPosition=center;verticalLabelPosition=bottom;verticalAlign=top;align=center;outlineConnect=0;shape=mxgraph.vvd.monitor;" vertex="1" parent="rpwozrU7dxwrfLIHk87M-70">
          <mxGeometry x="119" y="330" width="50" height="46.5" as="geometry" />
        </mxCell>
        <mxCell id="rpwozrU7dxwrfLIHk87M-141" value="" style="shape=image;verticalLabelPosition=bottom;labelBackgroundColor=default;verticalAlign=top;aspect=fixed;imageAspect=0;image=https://evtrack.com/wp-content/uploads/2023/08/logo_security-center_rgb_color_tm-1024x243.png;clipPath=inset(0% 79.33% 0% 0%);" vertex="1" parent="rpwozrU7dxwrfLIHk87M-70">
          <mxGeometry x="150" y="320" width="34.92957746478873" height="40" as="geometry" />
        </mxCell>
        <mxCell id="rpwozrU7dxwrfLIHk87M-142" value="" style="shape=image;html=1;verticalAlign=top;verticalLabelPosition=bottom;labelBackgroundColor=#ffffff;imageAspect=0;aspect=fixed;image=https://cdn0.iconfinder.com/data/icons/web-development-and-studio/512/90_security_Employee_insurance_person_personal_protection_shield-128.png;fontColor=#B3B3B3;" vertex="1" parent="rpwozrU7dxwrfLIHk87M-70">
          <mxGeometry x="50" y="310" width="60" height="60" as="geometry" />
        </mxCell>
        <mxCell id="rpwozrU7dxwrfLIHk87M-146" value="" style="shape=image;verticalLabelPosition=bottom;labelBackgroundColor=default;verticalAlign=top;aspect=fixed;imageAspect=0;image=data:image/png,iVBORw0KGgoAAAANSUhEUgAAADsAAAAdCAYAAAAU0BSYAAAAAXNSR0IArs4c6QAAAARnQU1BAACxjwv8YQUAAAAJcEhZcwAADsMAAA7DAcdvqGQAAAk3SURBVFhH7VhrcFRnGX73vpvdTTb3hNwWEhLCQBGxhTJQqfSCCKVVsbR1RMe2jvpD+8sf/lBn/O/4szPqdKRTbCuUtlpStS0IFEookBBuCUlIltx3N9n7fdf3efdscnYTYjLSH1qfmW/2nO98+533+rzvdzQ9PVcy9DmBVvn9XOD/yv6vIj9nMxlKxRNE6bQyoUCrJZ3RwKs1ygQvSSQpk0wqd/ceWpOJNNq596Vi8XlyafR60hr0yt0cMrwuDT1YHzXylE1FojT24RkKu8b4bm6hqayUqh9+kMyV5XKfDIVp8tR5Cg7dmbfhvULjk7vIXFMp1xB+6M2/UHzaJ/c52FevpOrtD5DWaFRmsmv9vQPkPneJUtGoMgto8pXNJFM08NpRGj7aQZlUSpklMthttPr7B1jhrbJm7IPTNHj42LyX30vc9/OfUMWWjXIdn/HTuRd/RslIRO5zsDkbaMMvXiJTRZkyQxQenaC+l18lb9dV1mEuEhAleTmr0euoZsdWMliLlJksEsEQTX1ySZRzd16m2396+zNVFIiMTShXRL4bffMUBUJ3xtiLg8odR2Y0RoOvHmFFr+UpCkjIK9ezsDasoPL7Nyh3CjhUp3kDeBRWi3lnlAefHeAhAGHpvXRVrgsBzpg49YnIhxR0vdVBk2c686IyB53JuAAbMwlV79hCOrNJmcgiGY5w3vyVYiqPanmDyq1fIuf+PTKqH9rMhMFEpgb2276Zanduk1HDqWBtrFMe3h3RKbcokQgEKTg4rMzOh//GLY6CSVbyAt05/hEbZ2EOMZY6Fi49yIWSta3K3RzyE56ofOM6an3hWXIe2EdNT++l0vXtLF/+y0BqzQf3U8vzz8hofGrXklg85p6hNK8Lu0Yp5rl7JMX9Qbr9xrvMM+9xbt89tYpbnAsrayi2i5d0FrMyUwD2VsmaFmr9wbeFHLRclpjryNfbP0+Rsg3tbNUSMtisTBI6Gj72/myI5qArssgeasRnZigZCElOJvwBZXY+0vG4pFeIjXLXysDylm1cv7CyGq6r9mYn52+tMpMPa10NrXz2STKVlyozqLsJDql+5S4LjU5HxW0tQnxg8cnT58l9/rLyNAs9kyHC3FKdLTM5pHl9cHiEQjykxv4HMNitZFtZv7CyIIUIWz827Vdm8mEoKSYzhFM1GVG3l8KcO2oYHcVUVF8rxgtw3o12fCQ1Wo3yTfdR3a4dorQaIBl/3wCFmXELPYZSuBDwnkKjASBdQ4l9vrJIcO/FHur73WsUm/Ios/kIDAwJMcAoOUxfZrovCGGbs15yFmXKdfQ4BfqH8gRHeDd+Y7cQndpwAJSdvnSNQiPjykwWeg555zP7mF3zCRSECj4wV2Ubn1koKae3cKooUwII77veS32/P8xsuLCiAGh+/MRZ+QXwv+kr1+U6B4QwWNdQYqOJk2elTquNA4C5b3NzcusPr0skqYEwBgekwvmRYGeiKf/ieu6enMpMVtHaR7ZT7WMPSeirgWdWJlxwwpyybHGEzcChIxRWW5MtA8IqJBDftd6spxgJ7nCyLeYcQG5QFvOud/8hOV2I6KSbps5dJM+FLor7ClKG5UlzrhaWElQJU5lDwh/G0ui0VLF5o3g1wcwMUlMDvCKhzXrMKhsYGKb+V95kz96SFwl4ga2pnlpffI6s/KsGSGO044Q03P4+ZkzustRAviK3B19/Z9EoWQ6Q1yVtzeItx7o2KmKidKxbQy3fe5rDt4Id0Dcveiy1VcwvFXItyqI16335EM303JxbzIoisdt++B2xHOIeoakG1mP4bnK4FdRgKDvTfZ1zmbsfVZ5quW2zNzfxfs15A1EAglkMkMeCwwGcwKFZv2cntf34oHgPbD/D0aYGqoCN/wNZAC26j/4/Hsl6VIUitsiq556i4tZV0mpBIL0tnzHjgQDXuFMUYM+iAVADYTv5caf0q2o41q+h9p8+T+0vvZA3nN/au+BxbRbMX9amOjJyCAPwbs3O7VRUUyX3MY9X0kINvdlMtlVNs0bU7S6v+6X30262uE6UwkBr5TzwBFU+uCkrAFsSbObruSHC6/hIhWOVjp/hRIKij9zJ/R8jHU9SOhrna8PsHEKthU9PxatXSflQD0SGu7OLtAX75IbBzo0O12NHe4vIA4gSyjXS0HOhm62cmv2PqbKMGvY+KpwDaLo6O7nDKzghaPiFbLncRjmkIjHpWSPjUyIczrmWFVUU54MB2rYcjCw8QgiEYVlRLQbD2ddgQ33MUIYP/jmAZLT8roQvIHvidGKuKJW6iPeDcPA+lCc7ewlEidqLzsnCXkX3BSCMMce7yz2Q1YO7QEWNZX1dRJ9665U3xIqoqcgVhB/KCqJDDMQ746APRdEt4TlIpfvXvxUGDQ66KDI5JcJBcDAl8tBz8YrkM3ihdMNa6aex38jxD8n1zt9EsbUc7nhn169+wwQZE+K0rWzMCrcELM4IKiAHh7jZ9nFLWPf4l6ntRwepcssmKTHIe2IhV+x6mOr3PUZV2x4g/80Bbua95OJeGDUY4Q5WRHoUtzbL+RTlooFHkus1WB3NAtZMnDwn64O3XTT+wRlhfngXPTVOXyGOEkSEnvvt5WDJykanvNKUW1iY+j2PUsX9X6DGr39VQi3mmaYMCzv293+KkvBaZHxCDBF1e2jw8NtSNsC4JWtXcxgnuLOq4OZ8nTBsdNIjOY8SBpIpQk/OqTV8rINJMCjGAy8gFdDwwziQw6jk4lKxZGVBSkj6OL906uwFGmXF8B0KZQuC4HtQ1bbNfMxbw4f7afZGgqqY4FAH4Q20hqZyhzQKoZExYXsYAOEOHsA1PIrS5/zm18RonvNdki5oX+F55Cq+L2FNMhTh0O/hSMuvIothycpC2LrdX5GX9nF7N3Doz+TtvkbRCbf0sUHO4/GTH8snEQiqt1qk8OPDGY53IB2jo0Q6paQ/JMQlnueGA18qa/hgX80eRE3G3Mj7J7hsNMi3r5bv7peeFxEwc7VXlPVc7pHeYPJ0pyLhv8eyCAq1NMr5ia8VaMRBLOlkghWYO2+iUQfRJPh0Y+azLkgmfGecGZdLDx8KYCxEA7orGBBfIuKcBvLRDIrytZ6NgDxFuTOxkTScKtLC4tMqS5ti1s01KkbeR33UXAzLUva/G0T/AskQct/rjUsVAAAAAElFTkSuQmCC;" vertex="1" parent="rpwozrU7dxwrfLIHk87M-70">
          <mxGeometry x="250.81" y="79.5" width="40.69" height="20" as="geometry" />
        </mxCell>
        <mxCell id="rpwozrU7dxwrfLIHk87M-150" style="edgeStyle=orthogonalEdgeStyle;rounded=0;orthogonalLoop=1;jettySize=auto;html=1;exitX=0.5;exitY=1;exitDx=0;exitDy=0;exitPerimeter=0;" edge="1" parent="1" source="rpwozrU7dxwrfLIHk87M-71" target="rpwozrU7dxwrfLIHk87M-149">
          <mxGeometry relative="1" as="geometry" />
        </mxCell>
        <mxCell id="rpwozrU7dxwrfLIHk87M-71" value="LTE TIGO-UNE" style="outlineConnect=0;dashed=0;verticalLabelPosition=top;verticalAlign=bottom;align=center;html=1;shape=mxgraph.aws3.internet_3;fillColor=#D2D3D3;gradientColor=none;labelPosition=center;" vertex="1" parent="1">
          <mxGeometry x="669" y="-767" width="79.5" height="54" as="geometry" />
        </mxCell>
        <mxCell id="rpwozrU7dxwrfLIHk87M-72" value="" style="shape=image;verticalLabelPosition=bottom;labelBackgroundColor=default;verticalAlign=top;aspect=fixed;imageAspect=0;image=https://dev-s33d3mn3w.us.seedcloud.co/sites/default/files/portfolio-images/Logo_une.png;clipPath=inset(22.78% 11% 22.22% 8.33%);" vertex="1" parent="1">
          <mxGeometry x="626" y="-710" width="80.67" height="33" as="geometry" />
        </mxCell>
        <mxCell id="rpwozrU7dxwrfLIHk87M-73" style="rounded=0;orthogonalLoop=1;jettySize=auto;html=1;entryX=0;entryY=0.7;entryDx=0;entryDy=0;entryPerimeter=0;dashed=1;" edge="1" parent="1" source="rpwozrU7dxwrfLIHk87M-23" target="rpwozrU7dxwrfLIHk87M-71">
          <mxGeometry relative="1" as="geometry" />
        </mxCell>
        <mxCell id="rpwozrU7dxwrfLIHk87M-136" value="RTSP" style="edgeLabel;html=1;align=center;verticalAlign=middle;resizable=0;points=[];" vertex="1" connectable="0" parent="rpwozrU7dxwrfLIHk87M-73">
          <mxGeometry x="-0.3604" y="-1" relative="1" as="geometry">
            <mxPoint as="offset" />
          </mxGeometry>
        </mxCell>
        <mxCell id="rpwozrU7dxwrfLIHk87M-147" value="&lt;h1 style=&quot;margin-top: 0px;&quot;&gt;&lt;span style=&quot;background-color: initial;&quot;&gt;&lt;font style=&quot;font-size: 15px;&quot;&gt;RED DEL PRIVADO&lt;/font&gt;&lt;/span&gt;&lt;/h1&gt;&lt;blockquote style=&quot;margin: 0 0 0 40px; border: none; padding: 0px;&quot;&gt;&lt;h1 style=&quot;margin-top: 0px;&quot;&gt;&lt;span style=&quot;font-size: 12px; font-weight: 400;&quot;&gt;El equipo &lt;/span&gt;&lt;span style=&quot;font-size: 12px;&quot;&gt;XTAM VIDEO&lt;/span&gt;&lt;span style=&quot;font-size: 12px; font-weight: 400;&quot;&gt; es ubicado en las instalaciones del privado y puede ser conectado a la red local del privado de la siguiente manera:&lt;br&gt;&lt;/span&gt;&lt;/h1&gt;&lt;/blockquote&gt;&lt;h1 style=&quot;margin-top: 0px;&quot;&gt;&lt;span style=&quot;font-size: 12px; font-weight: 400;&quot;&gt;&lt;ul&gt;&lt;li&gt;&lt;span style=&quot;font-size: 12px; font-weight: 400;&quot;&gt;Si las cámaras son IP el XTAM VIDEO se conectará a la red LAN de tal manera que pueda comunicarse con dichas cámaras. El protocolo de comunicación entre la cámara y el XTAM es RTSP.&lt;/span&gt;&lt;/li&gt;&lt;li&gt;Si las cámaras convergen en un DVR el XTAM debe tener comunicación de red con dicho DVR y el protocolo de comunicación es RTSP.&lt;/li&gt;&lt;li&gt;Se debe asignar un usuario y contraseña tanto para camaras IP como para los DVR para que el XTAM pueda identificarse y pueda consumir el flujo de video RTSP.&lt;/li&gt;&lt;/ul&gt;&lt;/span&gt;&lt;/h1&gt;&lt;blockquote style=&quot;margin: 0 0 0 40px; border: none; padding: 0px;&quot;&gt;&lt;h1 style=&quot;margin-top: 0px;&quot;&gt;&lt;span style=&quot;font-size: 12px;&quot;&gt;&lt;div style=&quot;&quot;&gt;&lt;span style=&quot;font-weight: 400;&quot;&gt;El &lt;/span&gt;XTAM VIDEO &lt;span style=&quot;font-weight: 400;&quot;&gt;se encargará de codificar el video y transmitirlo por el Router 4G deTigo-UNE.&lt;/span&gt;&lt;/div&gt;&lt;div style=&quot;&quot;&gt;&lt;span style=&quot;font-weight: 400;&quot;&gt;&lt;br&gt;&lt;/span&gt;&lt;/div&gt;&lt;div style=&quot;&quot;&gt;&lt;span style=&quot;font-weight: 400;&quot;&gt;El &lt;/span&gt;XTAM VIDEO&lt;span style=&quot;font-weight: 400;&quot;&gt; guardara de manera local e independiente las grabaciones por 30 días y podrán ser consultadas bajo demanda desde el XTAM CENTRAL.&lt;/span&gt;&lt;/div&gt;&lt;/span&gt;&lt;/h1&gt;&lt;/blockquote&gt;" style="text;html=1;whiteSpace=wrap;overflow=hidden;rounded=0;" vertex="1" parent="1">
          <mxGeometry x="60" y="-370" width="440" height="340" as="geometry" />
        </mxCell>
        <mxCell id="rpwozrU7dxwrfLIHk87M-148" value="&lt;h1 style=&quot;margin-top: 0px;&quot;&gt;&lt;span style=&quot;background-color: initial;&quot;&gt;&lt;font style=&quot;font-size: 15px;&quot;&gt;RED SECRETARIA DE MEDELLÍN&lt;/font&gt;&lt;/span&gt;&lt;/h1&gt;&lt;blockquote style=&quot;margin: 0 0 0 40px; border: none; padding: 0px;&quot;&gt;&lt;h1 style=&quot;margin-top: 0px;&quot;&gt;&lt;span style=&quot;font-size: 12px; font-weight: 400;&quot;&gt;En la red de la secretaria estará ubicado el&lt;/span&gt;&lt;span style=&quot;font-size: 12px;&quot;&gt; Router de Tigo-UNE&lt;/span&gt;&lt;span style=&quot;font-size: 12px; font-weight: 400;&quot;&gt; para la comunicación de los equipos &lt;/span&gt;&lt;span style=&quot;font-size: 12px;&quot;&gt;XTAM VIDEO&lt;/span&gt;&lt;span style=&quot;font-size: 12px; font-weight: 400;&quot;&gt; y &lt;/span&gt;&lt;span style=&quot;font-size: 12px;&quot;&gt;GENETEC &lt;/span&gt;&lt;span style=&quot;font-size: 12px; font-weight: 400;&quot;&gt;se debe configurar de tal manera que el servidor &lt;/span&gt;&lt;span style=&quot;font-size: 12px;&quot;&gt;XTAM CENTRAL&lt;/span&gt;&lt;span style=&quot;font-size: 12px; font-weight: 400;&quot;&gt; y el &lt;/span&gt;&lt;span style=&quot;font-size: 12px;&quot;&gt;SERVIDOR ARCHIVER&lt;/span&gt;&lt;span style=&quot;font-size: 12px; font-weight: 400;&quot;&gt; pueda ver la IP del XTAM VIDEO suministrada por Tigo-UNE&lt;/span&gt;&lt;span style=&quot;font-size: 12px; font-weight: 400;&quot;&gt;:&lt;br&gt;&lt;/span&gt;&lt;/h1&gt;&lt;/blockquote&gt;&lt;h1 style=&quot;margin-top: 0px;&quot;&gt;&lt;span style=&quot;font-size: 12px;&quot;&gt;&lt;ul style=&quot;&quot;&gt;&lt;li style=&quot;&quot;&gt;&lt;span style=&quot;font-weight: 400;&quot;&gt;En el software de &lt;/span&gt;GENETEC &lt;span style=&quot;font-weight: 400;&quot;&gt;se debe incluir la cámara como flujo RTSP Genérico y no tendrá otro tipo de comunicación con el sistema. (No analíticas, No grabaciones, etc.)&lt;/span&gt;&lt;/li&gt;&lt;li style=&quot;font-weight: 400;&quot;&gt;La Workstation de GENETEC debe tener comunicación con el ARCHIVER.&lt;/li&gt;&lt;li style=&quot;&quot;&gt;&lt;span style=&quot;font-weight: 400;&quot;&gt;El equipo &lt;/span&gt;XTAM CENTRAL &lt;span style=&quot;font-weight: 400;&quot;&gt;es independiente de los flujos de video y es para temas netamente de gestión y trazabilidad de la disponibilidad de los &lt;/span&gt;XTAM VIDEOS&lt;span style=&quot;font-weight: 400;&quot;&gt;, como también para ver las grabaciones bajo demanda. Por ende, almacenará los video descargados.&lt;/span&gt;&lt;/li&gt;&lt;/ul&gt;&lt;/span&gt;&lt;/h1&gt;" style="text;html=1;whiteSpace=wrap;overflow=hidden;rounded=0;" vertex="1" parent="1">
          <mxGeometry x="530" y="-370" width="620" height="350" as="geometry" />
        </mxCell>
        <mxCell id="rpwozrU7dxwrfLIHk87M-151" style="edgeStyle=orthogonalEdgeStyle;rounded=0;orthogonalLoop=1;jettySize=auto;html=1;" edge="1" parent="1" source="rpwozrU7dxwrfLIHk87M-149" target="rpwozrU7dxwrfLIHk87M-76">
          <mxGeometry relative="1" as="geometry" />
        </mxCell>
        <mxCell id="rpwozrU7dxwrfLIHk87M-149" value="APN/MPLS" style="verticalLabelPosition=bottom;sketch=0;aspect=fixed;html=1;verticalAlign=top;strokeColor=none;align=center;outlineConnect=0;shape=mxgraph.citrix.router;" vertex="1" parent="1">
          <mxGeometry x="683.75" y="-666.5" width="50" height="33.18" as="geometry" />
        </mxCell>
      </root>
    </mxGraphModel>
  </diagram>
</mxfile>
